{"asset": {"version": "2.0", "generator": "GreenRes marker generator"}, "scene": 0, "scenes": [{"nodes": [0]}], "nodes": [{"mesh": 0, "name": "climate_marker"}], "meshes": [{"primitives": [{"attributes": {"POSITION": 0, "NORMAL": 1}, "indices": 2, "material": 0, "mode": 4}], "name": "quad"}], "materials": [{"name": "marker_material", "pbrMetallicRoughness": {"baseColorFactor": [1.0, 0.76, 0.29, 0.6], "metallicFactor": 0.0, "roughnessFactor": 0.9}, "alphaMode": "BLEND", "doubleSided": true}], "accessors": [{"bufferView": 0, "componentType": 5126, "count": 4, "type": "VEC3", "max": [0.3, 0.0, 0.3], "min": [-0.3, 0.0, -0.3]}, {"bufferView": 1, "componentType": 5126, "count": 4, "type": "VEC3"}, {"bufferView": 2, "componentType": 5123, "count": 6, "type": "SCALAR"}], "bufferViews": [{"buffer": 0, "byteOffset": 0, "byteLength": 48, "target": 34962}, {"buffer": 0, "byteOffset": 48, "byteLength": 48, "target": 34962}, {"buffer": 0, "byteOffset": 96, "byteLength": 12, "target": 34963}], "buffers": [{"byteLength": 108, "uri": "data:application/octet-stream;base64,"}]}